<svg xmlns="http://www.w3.org/2000/svg" xmlns:xlink="http://www.w3.org/1999/xlink" id="terminal" baseProfile="full" viewBox="0 0 1016 563" width="1016" version="1.1">
    <defs>
        <termtosvg:template_settings xmlns:termtosvg="https://github.com/nbedos/termtosvg">
            <termtosvg:screen_geometry columns="127" rows="33"/>
            <termtosvg:animation type="css"/>
        </termtosvg:template_settings>
        <style type="text/css" id="generated-style"><![CDATA[#screen {
                font-family: 'DejaVu Sans Mono', monospace;
                font-style: normal;
                font-size: 14px;
            }

        text {
            dominant-baseline: text-before-edge;
            white-space: pre;
        }
    
            :root {
                --animation-duration: 29286ms;
            }

            @keyframes roll {
                0.000%{transform:translateY(0px)}
0.741%{transform:translateY(-578px)}
3.268%{transform:translateY(-1156px)}
3.759%{transform:translateY(-1734px)}
4.446%{transform:translateY(-2312px)}
4.815%{transform:translateY(-2890px)}
5.419%{transform:translateY(-3468px)}
5.743%{transform:translateY(-4046px)}
6.293%{transform:translateY(-4624px)}
6.717%{transform:translateY(-5202px)}
7.574%{transform:translateY(-5780px)}
8.922%{transform:translateY(-6358px)}
8.929%{transform:translateY(-6936px)}
8.933%{transform:translateY(-7514px)}
8.939%{transform:translateY(-8092px)}
12.187%{transform:translateY(-8670px)}
13.040%{transform:translateY(-9248px)}
13.539%{transform:translateY(-9826px)}
15.437%{transform:translateY(-10404px)}
17.879%{transform:translateY(-10982px)}
17.896%{transform:translateY(-11560px)}
18.002%{transform:translateY(-12138px)}
21.734%{transform:translateY(-12716px)}
27.409%{transform:translateY(-13294px)}
32.043%{transform:translateY(-13872px)}
32.056%{transform:translateY(-14450px)}
41.040%{transform:translateY(-15028px)}
41.347%{transform:translateY(-15606px)}
42.802%{transform:translateY(-16184px)}
42.846%{transform:translateY(-16762px)}
43.352%{transform:translateY(-17340px)}
44.530%{transform:translateY(-17918px)}
45.537%{transform:translateY(-18496px)}
45.599%{transform:translateY(-19074px)}
52.158%{transform:translateY(-19652px)}
86.686%{transform:translateY(-20230px)}
86.724%{transform:translateY(-20808px)}
96.585%{transform:translateY(-21386px)}
100.000%{transform:translateY(-21386px)}
            }

            #screen_view {
                animation-duration: 29286ms;
                animation-iteration-count:infinite;
                animation-name:roll;
                animation-timing-function: steps(1,end);
                animation-fill-mode: forwards;
            }
        ]]></style>
        <style type="text/css" id="user-style">
            /* The colors defined below are the default 16 colors used for rendering text of the terminal. Adjust
               them as needed.
               PowerShell colors based on https://en.wikipedia.org/wiki/ANSI_escape_code#Colors */
            .foreground {fill: #cccccc;}
            .background {fill: #0c0c0c;}
            .color0 {fill: #0c0c0c;}
            .color1 {fill: #c50f1f;}
            .color2 {fill: #13a10e;}
            .color3 {fill: #c19c00;}
            .color4 {fill: #0037da;}
            .color5 {fill: #881798;}
            .color6 {fill: #3a96dd;}
            .color7 {fill: #cccccc;}
            .color8 {fill: #767676;}
            .color9 {fill: #e74856;}
            .color10 {fill: #16c60c;}
            .color11 {fill: #f9f1a5;}
            .color12 {fill: #3b78ff;}
            .color13 {fill: #b4009e;}
            .color14 {fill: #61d6d6;}
            .color15 {fill: #f2f2f2;}
        </style>
    </defs>
    <svg id="screen" width="1016" height="561" viewBox="0 0 1016 561" preserveAspectRatio="xMidYMin slice">
    <rect class="background" height="100%" width="100%" x="0" y="0"/><defs><g id="g1"><text x="0" textLength="8" class="background"> </text></g><g id="g2"><text x="0" textLength="144" class="foreground">nikhil@purpleterm </text><text x="144" textLength="216" font-weight="bold" class="color10">~/Projects/kindle-send/dist</text><text x="360" textLength="656" class="foreground">                                                                                  </text></g><g id="g3"><text x="0" textLength="24" font-weight="bold" class="color15"> % </text><text x="24" textLength="8" class="background"> </text><text x="32" textLength="984" class="foreground">                                                                                                                           </text></g><g id="g4"><text x="0" textLength="24" font-weight="bold" class="color15"> % </text><text x="24" textLength="8" class="foreground">c</text><text x="32" textLength="8" class="background"> </text><text x="40" textLength="976" class="foreground">                                                                                                                          </text></g><g id="g5"><text x="0" textLength="24" font-weight="bold" class="color15"> % </text><text x="24" textLength="16" class="foreground">ca</text><text x="40" textLength="8" class="background"> </text><text x="48" textLength="968" class="foreground">                                                                                                                         </text></g><g id="g6"><text x="0" textLength="24" font-weight="bold" class="color15"> % </text><text x="24" textLength="24" class="foreground">cat</text><text x="48" textLength="8" class="background"> </text><text x="56" textLength="960" class="foreground">                                                                                                                        </text></g><g id="g7"><text x="0" textLength="24" font-weight="bold" class="color15"> % </text><text x="24" textLength="32" class="foreground">cat </text><text x="56" textLength="8" class="background"> </text><text x="64" textLength="952" class="foreground">                                                                                                                       </text></g><g id="g8"><text x="0" textLength="24" font-weight="bold" class="color15"> % </text><text x="24" textLength="40" class="foreground">cat u</text><text x="64" textLength="8" class="background"> </text><text x="72" textLength="944" class="foreground">                                                                                                                      </text></g><g id="g9"><text x="0" textLength="24" font-weight="bold" class="color15"> % </text><text x="24" textLength="48" class="foreground">cat ur</text><text x="72" textLength="8" class="background"> </text><text x="80" textLength="936" class="foreground">                                                                                                                     </text></g><g id="g10"><text x="0" textLength="24" font-weight="bold" class="color15"> % </text><text x="24" textLength="56" class="foreground">cat url</text><text x="80" textLength="8" class="background"> </text><text x="88" textLength="928" class="foreground">                                                                                                                    </text></g><g id="g11"><text x="0" textLength="24" font-weight="bold" class="color15"> % </text><text x="24" textLength="64" class="foreground">cat urls</text><text x="88" textLength="8" class="background"> </text><text x="96" textLength="920" class="foreground">                                                                                                                   </text></g><g id="g12"><text x="0" textLength="24" font-weight="bold" class="color15"> % </text><text x="24" textLength="96" class="foreground">cat urls.txt</text><text x="120" textLength="8" font-weight="bold" class="foreground"> </text><text x="128" textLength="8" class="background"> </text><text x="136" textLength="880" class="foreground">                                                                                                              </text></g><g id="g13"><text x="0" textLength="24" font-weight="bold" class="color15"> % </text><text x="24" textLength="96" class="foreground">cat urls.txt</text><text x="120" textLength="8" class="background"> </text><text x="128" textLength="888" class="foreground">                                                                                                               </text></g><g id="g14"><text x="0" textLength="24" font-weight="bold" class="color15"> % </text><text x="24" textLength="992" class="foreground">cat urls.txt                                                                                                                </text></g><g id="g15"><text x="0" textLength="256" class="foreground">https://fs.blog/smart-decisions/</text></g><g id="g16"><text x="0" textLength="448" class="foreground">https://www.franzoni.eu/machine-learning-a-sound-primer/</text></g><g id="g17"><text x="0" textLength="368" class="foreground">https://newworldeconomics.com//how-banks-work/</text></g><g id="g18"><text x="0" textLength="8" class="background"> </text><text x="8" textLength="1008" class="foreground">                                                                                                                              </text></g><g id="g19"><text x="0" textLength="24" font-weight="bold" class="color15"> % </text><text x="24" textLength="8" class="foreground">k</text><text x="32" textLength="8" class="background"> </text><text x="40" textLength="976" class="foreground">                                                                                                                          </text></g><g id="g20"><text x="0" textLength="24" font-weight="bold" class="color15"> % </text><text x="24" textLength="16" class="foreground">ki</text><text x="40" textLength="8" class="background"> </text><text x="48" textLength="968" class="foreground">                                                                                                                         </text></g><g id="g21"><text x="0" textLength="24" font-weight="bold" class="color15"> % </text><text x="24" textLength="24" class="foreground">kin</text><text x="48" textLength="8" class="background"> </text><text x="56" textLength="960" class="foreground">                                                                                                                        </text></g><g id="g22"><text x="0" textLength="24" font-weight="bold" class="color15"> % </text><text x="24" textLength="448" class="foreground">kindle-send --linkfile urls.txt --title "Sunday reading"</text><text x="472" textLength="8" class="background"> </text><text x="480" textLength="536" class="foreground">                                                                   </text></g><g id="g23"><text x="0" textLength="24" font-weight="bold" class="color15"> % </text><text x="24" textLength="992" class="foreground">kindle-send --linkfile urls.txt --title "Sunday reading"                                                                    </text></g><g id="g24"><text x="0" textLength="160" class="color2">Loaded configuration</text></g><g id="g25"><text x="0" textLength="880" class="color2">Fetched https://fs.blog/smart-decisions/ --&gt; How to Make Smart Decisions Without Getting Lucky - Farnam Street</text></g><g id="g26"><text x="0" textLength="808" class="color2">Fetched https://www.franzoni.eu/machine-learning-a-sound-primer/ --&gt; Machine Learning: a sound primer</text></g><g id="g27"><text x="0" textLength="760" class="color2">Fetched https://newworldeconomics.com//how-banks-work/ --&gt; How Banks Work | New World Economics</text></g><g id="g28"><text x="0" textLength="456" class="color6">Embedding images in  How Banks Work | New World Economics</text></g><g id="g29"><text x="0" textLength="144" font-weight="bold" class="color14">Downloading Images</text></g><g id="g30"><text x="0" textLength="688" class="color6">Embedding images in  How to Make Smart Decisions Without Getting Lucky - Farnam Street</text></g><g id="g31"><text x="0" textLength="424" class="foreground">Embedding images in  Machine Learning: a sound primer</text></g><g id="g32"><text x="0" textLength="1016" class="color1">Couldn't add image http://www.newworldeconomics.com/archives/2008/020308_files/WFCbsheet.gif : Error retrieving "http://www.new</text></g><g id="g33"><text x="0" textLength="1016" class="color1">worldeconomics.com/archives/2008/020308_files/WFCbsheet.gif" from source: Error retrieving "http://www.newworldeconomics.com/ar</text></g><g id="g34"><text x="0" textLength="424" class="color1">chives/2008/020308_files/WFCbsheet.gif" from source: </text></g><g id="g35"><text x="0" textLength="848" class="color1"> stat http://www.newworldeconomics.com/archives/2008/020308_files/WFCbsheet.gif: no such file or directory</text></g><g id="g36"><text x="0" textLength="264" class="color1"> cannot get file, bad return code</text></g><g id="g37"><text x="0" textLength="160" class="color1"> missing data prefix</text></g><g id="g38"><text x="0" textLength="864" class="color2">Downloaded image https://149664534.v2.pressablecdn.com/wp-content/uploads/2018/08/acquiring-wisdom-white.jpg</text></g><g id="g39"><text x="0" textLength="984" class="color2">Downloaded image https://149664534.v2.pressablecdn.com/wp-content/uploads/2018/04/Ultimate-Guide-Making-Smart-Decisions.png</text></g><g id="g40"><text x="0" textLength="1016" class="color2">Setting img src from https://149664534.v2.pressablecdn.com/wp-content/uploads/2018/08/acquiring-wisdom-white.jpg to ../images/a</text></g><g id="g41"><text x="0" textLength="208" class="color2">cquiring-wisdom-white.jpg </text></g><g id="g42"><text x="0" textLength="1016" class="color2">Setting img src from https://149664534.v2.pressablecdn.com/wp-content/uploads/2018/04/Ultimate-Guide-Making-Smart-Decisions.png</text></g><g id="g43"><text x="0" textLength="448" class="color2"> to ../images/Ultimate-Guide-Making-Smart-Decisions.png </text></g><g id="g44"><text x="0" textLength="920" class="color2">Downloaded image https://www.franzoni.eu/content/images/size/w1200/2019/07/lacie-slezak-yHG6llFLjS0-unsplash-1-.jpg</text></g><g id="g45"><text x="0" textLength="1016" class="color2">Setting img src from https://www.franzoni.eu/content/images/size/w1200/2019/07/lacie-slezak-yHG6llFLjS0-unsplash-1-.jpg to ../i</text></g><g id="g46"><text x="0" textLength="376" class="color2">mages/lacie-slezak-yHG6llFLjS0-unsplash-1-.jpg </text></g><g id="g47"><text x="0" textLength="720" class="color2">Downloaded image https://newworldeconomics.com//wp-content/uploads/2016/12/WFCyields-1.gif</text></g><g id="g48"><text x="0" textLength="704" class="color2">Downloaded image https://newworldeconomics.com//wp-content/uploads/2016/12/WFCincome.gif</text></g><g id="g49"><text x="0" textLength="992" class="color2">Setting img src from https://newworldeconomics.com//wp-content/uploads/2016/12/WFCyields-1.gif to ../images/WFCyields-1.gif </text></g><g id="g50"><text x="0" textLength="960" class="color2">Setting img src from https://newworldeconomics.com//wp-content/uploads/2016/12/WFCincome.gif to ../images/WFCincome.gif </text></g><g id="g51"><text x="0" textLength="128" class="color2">Added 3 articles</text></g><g id="g52"><text x="0" textLength="96" font-weight="bold" class="color14">Sending mail</text></g><g id="g53"><text x="0" textLength="352" font-weight="bold" class="color10">Mailed 1 files to purple_terminal@kindle.com</text><text x="352" textLength="8" class="background"> </text></g><g id="g54"><text x="0" textLength="352" font-weight="bold" class="color10">Mailed 1 files to purple_terminal@kindle.com</text><text x="352" textLength="8" font-weight="bold" class="background">%</text><text x="360" textLength="656" class="foreground">                                                                                  </text></g><g id="g55"><text x="0" textLength="24" font-weight="bold" class="color15"> % </text><text x="24" textLength="992" class="foreground">                                                                                                                            </text></g></defs><g id="screen_view"><g><rect x="0" y="0" width="8" height="17" class="foreground"/><use xlink:href="#g1" y="0"/></g><g><rect x="0" y="578" width="136" height="17" class="color4"/><use xlink:href="#g2" y="578"/><rect x="24" y="595" width="8" height="17" class="foreground"/><use xlink:href="#g3" y="595"/></g><g><rect x="0" y="1156" width="136" height="17" class="color4"/><use xlink:href="#g2" y="1156"/><rect x="32" y="1173" width="8" height="17" class="foreground"/><use xlink:href="#g4" y="1173"/></g><g><rect x="0" y="1734" width="136" height="17" class="color4"/><use xlink:href="#g2" y="1734"/><rect x="40" y="1751" width="8" height="17" class="foreground"/><use xlink:href="#g5" y="1751"/></g><g><rect x="0" y="2312" width="136" height="17" class="color4"/><use xlink:href="#g2" y="2312"/><rect x="48" y="2329" width="8" height="17" class="foreground"/><use xlink:href="#g6" y="2329"/></g><g><rect x="0" y="2890" width="136" height="17" class="color4"/><use xlink:href="#g2" y="2890"/><rect x="56" y="2907" width="8" height="17" class="foreground"/><use xlink:href="#g7" y="2907"/></g><g><rect x="0" y="3468" width="136" height="17" class="color4"/><use xlink:href="#g2" y="3468"/><rect x="64" y="3485" width="8" height="17" class="foreground"/><use xlink:href="#g8" y="3485"/></g><g><rect x="0" y="4046" width="136" height="17" class="color4"/><use xlink:href="#g2" y="4046"/><rect x="72" y="4063" width="8" height="17" class="foreground"/><use xlink:href="#g9" y="4063"/></g><g><rect x="0" y="4624" width="136" height="17" class="color4"/><use xlink:href="#g2" y="4624"/><rect x="80" y="4641" width="8" height="17" class="foreground"/><use xlink:href="#g10" y="4641"/></g><g><rect x="0" y="5202" width="136" height="17" class="color4"/><use xlink:href="#g2" y="5202"/><rect x="88" y="5219" width="8" height="17" class="foreground"/><use xlink:href="#g11" y="5219"/></g><g><rect x="0" y="5780" width="136" height="17" class="color4"/><use xlink:href="#g2" y="5780"/><rect x="128" y="5797" width="8" height="17" class="foreground"/><use xlink:href="#g12" y="5797"/></g><g><rect x="0" y="6358" width="136" height="17" class="color4"/><use xlink:href="#g2" y="6358"/><rect x="120" y="6375" width="8" height="17" class="foreground"/><use xlink:href="#g13" y="6375"/></g><g><rect x="0" y="6936" width="136" height="17" class="color4"/><use xlink:href="#g2" y="6936"/><use xlink:href="#g14" y="6953"/><use xlink:href="#g15" y="6970"/><use xlink:href="#g16" y="6987"/><use xlink:href="#g17" y="7004"/><rect x="0" y="7021" width="8" height="17" class="foreground"/><use xlink:href="#g18" y="7021"/></g><g><rect x="0" y="7514" width="136" height="17" class="color4"/><use xlink:href="#g2" y="7514"/><use xlink:href="#g14" y="7531"/><use xlink:href="#g15" y="7548"/><use xlink:href="#g16" y="7565"/><use xlink:href="#g17" y="7582"/><rect x="0" y="7599" width="136" height="17" class="color4"/><use xlink:href="#g2" y="7599"/><rect x="24" y="7616" width="8" height="17" class="foreground"/><use xlink:href="#g3" y="7616"/></g><g><rect x="0" y="8092" width="136" height="17" class="color4"/><use xlink:href="#g2" y="8092"/><use xlink:href="#g14" y="8109"/><use xlink:href="#g15" y="8126"/><use xlink:href="#g16" y="8143"/><use xlink:href="#g17" y="8160"/><rect x="0" y="8177" width="136" height="17" class="color4"/><use xlink:href="#g2" y="8177"/><rect x="24" y="8194" width="8" height="17" class="foreground"/><use xlink:href="#g3" y="8194"/></g><g><rect x="0" y="8670" width="136" height="17" class="color4"/><use xlink:href="#g2" y="8670"/><use xlink:href="#g14" y="8687"/><use xlink:href="#g15" y="8704"/><use xlink:href="#g16" y="8721"/><use xlink:href="#g17" y="8738"/><rect x="0" y="8755" width="136" height="17" class="color4"/><use xlink:href="#g2" y="8755"/><rect x="32" y="8772" width="8" height="17" class="foreground"/><use xlink:href="#g19" y="8772"/></g><g><rect x="0" y="9248" width="136" height="17" class="color4"/><use xlink:href="#g2" y="9248"/><use xlink:href="#g14" y="9265"/><use xlink:href="#g15" y="9282"/><use xlink:href="#g16" y="9299"/><use xlink:href="#g17" y="9316"/><rect x="0" y="9333" width="136" height="17" class="color4"/><use xlink:href="#g2" y="9333"/><rect x="40" y="9350" width="8" height="17" class="foreground"/><use xlink:href="#g20" y="9350"/></g><g><rect x="0" y="9826" width="136" height="17" class="color4"/><use xlink:href="#g2" y="9826"/><use xlink:href="#g14" y="9843"/><use xlink:href="#g15" y="9860"/><use xlink:href="#g16" y="9877"/><use xlink:href="#g17" y="9894"/><rect x="0" y="9911" width="136" height="17" class="color4"/><use xlink:href="#g2" y="9911"/><rect x="48" y="9928" width="8" height="17" class="foreground"/><use xlink:href="#g21" y="9928"/></g><g><rect x="0" y="10404" width="136" height="17" class="color4"/><use xlink:href="#g2" y="10404"/><use xlink:href="#g14" y="10421"/><use xlink:href="#g15" y="10438"/><use xlink:href="#g16" y="10455"/><use xlink:href="#g17" y="10472"/><rect x="0" y="10489" width="136" height="17" class="color4"/><use xlink:href="#g2" y="10489"/><rect x="472" y="10506" width="8" height="17" class="foreground"/><use xlink:href="#g22" y="10506"/></g><g><rect x="0" y="10982" width="136" height="17" class="color4"/><use xlink:href="#g2" y="10982"/><use xlink:href="#g14" y="10999"/><use xlink:href="#g15" y="11016"/><use xlink:href="#g16" y="11033"/><use xlink:href="#g17" y="11050"/><rect x="0" y="11067" width="136" height="17" class="color4"/><use xlink:href="#g2" y="11067"/><rect x="472" y="11084" width="8" height="17" class="foreground"/><use xlink:href="#g22" y="11084"/></g><g><rect x="0" y="11560" width="136" height="17" class="color4"/><use xlink:href="#g2" y="11560"/><use xlink:href="#g14" y="11577"/><use xlink:href="#g15" y="11594"/><use xlink:href="#g16" y="11611"/><use xlink:href="#g17" y="11628"/><rect x="0" y="11645" width="136" height="17" class="color4"/><use xlink:href="#g2" y="11645"/><use xlink:href="#g23" y="11662"/><rect x="0" y="11679" width="8" height="17" class="foreground"/><use xlink:href="#g1" y="11679"/></g><g><rect x="0" y="12138" width="136" height="17" class="color4"/><use xlink:href="#g2" y="12138"/><use xlink:href="#g14" y="12155"/><use xlink:href="#g15" y="12172"/><use xlink:href="#g16" y="12189"/><use xlink:href="#g17" y="12206"/><rect x="0" y="12223" width="136" height="17" class="color4"/><use xlink:href="#g2" y="12223"/><use xlink:href="#g23" y="12240"/><use xlink:href="#g24" y="12257"/><rect x="0" y="12274" width="8" height="17" class="foreground"/><use xlink:href="#g1" y="12274"/></g><g><rect x="0" y="12716" width="136" height="17" class="color4"/><use xlink:href="#g2" y="12716"/><use xlink:href="#g14" y="12733"/><use xlink:href="#g15" y="12750"/><use xlink:href="#g16" y="12767"/><use xlink:href="#g17" y="12784"/><rect x="0" y="12801" width="136" height="17" class="color4"/><use xlink:href="#g2" y="12801"/><use xlink:href="#g23" y="12818"/><use xlink:href="#g24" y="12835"/><use xlink:href="#g25" y="12852"/><rect x="0" y="12869" width="8" height="17" class="foreground"/><use xlink:href="#g1" y="12869"/></g><g><rect x="0" y="13294" width="136" height="17" class="color4"/><use xlink:href="#g2" y="13294"/><use xlink:href="#g14" y="13311"/><use xlink:href="#g15" y="13328"/><use xlink:href="#g16" y="13345"/><use xlink:href="#g17" y="13362"/><rect x="0" y="13379" width="136" height="17" class="color4"/><use xlink:href="#g2" y="13379"/><use xlink:href="#g23" y="13396"/><use xlink:href="#g24" y="13413"/><use xlink:href="#g25" y="13430"/><use xlink:href="#g26" y="13447"/><rect x="0" y="13464" width="8" height="17" class="foreground"/><use xlink:href="#g1" y="13464"/></g><g><rect x="0" y="13872" width="136" height="17" class="color4"/><use xlink:href="#g2" y="13872"/><use xlink:href="#g14" y="13889"/><use xlink:href="#g15" y="13906"/><use xlink:href="#g16" y="13923"/><use xlink:href="#g17" y="13940"/><rect x="0" y="13957" width="136" height="17" class="color4"/><use xlink:href="#g2" y="13957"/><use xlink:href="#g23" y="13974"/><use xlink:href="#g24" y="13991"/><use xlink:href="#g25" y="14008"/><use xlink:href="#g26" y="14025"/><use xlink:href="#g27" y="14042"/><rect x="0" y="14059" width="8" height="17" class="foreground"/><use xlink:href="#g1" y="14059"/></g><g><rect x="0" y="14450" width="136" height="17" class="color4"/><use xlink:href="#g2" y="14450"/><use xlink:href="#g14" y="14467"/><use xlink:href="#g15" y="14484"/><use xlink:href="#g16" y="14501"/><use xlink:href="#g17" y="14518"/><rect x="0" y="14535" width="136" height="17" class="color4"/><use xlink:href="#g2" y="14535"/><use xlink:href="#g23" y="14552"/><use xlink:href="#g24" y="14569"/><use xlink:href="#g25" y="14586"/><use xlink:href="#g26" y="14603"/><use xlink:href="#g27" y="14620"/><use xlink:href="#g28" y="14637"/><use xlink:href="#g29" y="14654"/><use xlink:href="#g30" y="14671"/><use xlink:href="#g29" y="14688"/><use xlink:href="#g31" y="14705"/><use xlink:href="#g29" y="14722"/><rect x="0" y="14739" width="8" height="17" class="foreground"/><use xlink:href="#g1" y="14739"/></g><g><rect x="0" y="15028" width="136" height="17" class="color4"/><use xlink:href="#g2" y="15028"/><use xlink:href="#g14" y="15045"/><use xlink:href="#g15" y="15062"/><use xlink:href="#g16" y="15079"/><use xlink:href="#g17" y="15096"/><rect x="0" y="15113" width="136" height="17" class="color4"/><use xlink:href="#g2" y="15113"/><use xlink:href="#g23" y="15130"/><use xlink:href="#g24" y="15147"/><use xlink:href="#g25" y="15164"/><use xlink:href="#g26" y="15181"/><use xlink:href="#g27" y="15198"/><use xlink:href="#g28" y="15215"/><use xlink:href="#g29" y="15232"/><use xlink:href="#g30" y="15249"/><use xlink:href="#g29" y="15266"/><use xlink:href="#g31" y="15283"/><use xlink:href="#g29" y="15300"/><use xlink:href="#g32" y="15317"/><use xlink:href="#g33" y="15334"/><use xlink:href="#g34" y="15351"/><use xlink:href="#g35" y="15368"/><use xlink:href="#g36" y="15385"/><use xlink:href="#g37" y="15402"/><use xlink:href="#g29" y="15419"/><rect x="0" y="15436" width="8" height="17" class="foreground"/><use xlink:href="#g1" y="15436"/></g><g><rect x="0" y="15606" width="136" height="17" class="color4"/><use xlink:href="#g2" y="15606"/><use xlink:href="#g14" y="15623"/><use xlink:href="#g15" y="15640"/><use xlink:href="#g16" y="15657"/><use xlink:href="#g17" y="15674"/><rect x="0" y="15691" width="136" height="17" class="color4"/><use xlink:href="#g2" y="15691"/><use xlink:href="#g23" y="15708"/><use xlink:href="#g24" y="15725"/><use xlink:href="#g25" y="15742"/><use xlink:href="#g26" y="15759"/><use xlink:href="#g27" y="15776"/><use xlink:href="#g28" y="15793"/><use xlink:href="#g29" y="15810"/><use xlink:href="#g30" y="15827"/><use xlink:href="#g29" y="15844"/><use xlink:href="#g31" y="15861"/><use xlink:href="#g29" y="15878"/><use xlink:href="#g32" y="15895"/><use xlink:href="#g33" y="15912"/><use xlink:href="#g34" y="15929"/><use xlink:href="#g35" y="15946"/><use xlink:href="#g36" y="15963"/><use xlink:href="#g37" y="15980"/><use xlink:href="#g29" y="15997"/><use xlink:href="#g38" y="16014"/><use xlink:href="#g29" y="16031"/><rect x="0" y="16048" width="8" height="17" class="foreground"/><use xlink:href="#g1" y="16048"/></g><g><rect x="0" y="16184" width="136" height="17" class="color4"/><use xlink:href="#g2" y="16184"/><use xlink:href="#g14" y="16201"/><use xlink:href="#g15" y="16218"/><use xlink:href="#g16" y="16235"/><use xlink:href="#g17" y="16252"/><rect x="0" y="16269" width="136" height="17" class="color4"/><use xlink:href="#g2" y="16269"/><use xlink:href="#g23" y="16286"/><use xlink:href="#g24" y="16303"/><use xlink:href="#g25" y="16320"/><use xlink:href="#g26" y="16337"/><use xlink:href="#g27" y="16354"/><use xlink:href="#g28" y="16371"/><use xlink:href="#g29" y="16388"/><use xlink:href="#g30" y="16405"/><use xlink:href="#g29" y="16422"/><use xlink:href="#g31" y="16439"/><use xlink:href="#g29" y="16456"/><use xlink:href="#g32" y="16473"/><use xlink:href="#g33" y="16490"/><use xlink:href="#g34" y="16507"/><use xlink:href="#g35" y="16524"/><use xlink:href="#g36" y="16541"/><use xlink:href="#g37" y="16558"/><use xlink:href="#g29" y="16575"/><use xlink:href="#g38" y="16592"/><use xlink:href="#g29" y="16609"/><use xlink:href="#g39" y="16626"/><use xlink:href="#g40" y="16643"/><use xlink:href="#g41" y="16660"/><rect x="0" y="16677" width="8" height="17" class="color2"/><use xlink:href="#g1" y="16677"/></g><g><rect x="0" y="16762" width="136" height="17" class="color4"/><use xlink:href="#g2" y="16762"/><use xlink:href="#g14" y="16779"/><use xlink:href="#g15" y="16796"/><use xlink:href="#g16" y="16813"/><use xlink:href="#g17" y="16830"/><rect x="0" y="16847" width="136" height="17" class="color4"/><use xlink:href="#g2" y="16847"/><use xlink:href="#g23" y="16864"/><use xlink:href="#g24" y="16881"/><use xlink:href="#g25" y="16898"/><use xlink:href="#g26" y="16915"/><use xlink:href="#g27" y="16932"/><use xlink:href="#g28" y="16949"/><use xlink:href="#g29" y="16966"/><use xlink:href="#g30" y="16983"/><use xlink:href="#g29" y="17000"/><use xlink:href="#g31" y="17017"/><use xlink:href="#g29" y="17034"/><use xlink:href="#g32" y="17051"/><use xlink:href="#g33" y="17068"/><use xlink:href="#g34" y="17085"/><use xlink:href="#g35" y="17102"/><use xlink:href="#g36" y="17119"/><use xlink:href="#g37" y="17136"/><use xlink:href="#g29" y="17153"/><use xlink:href="#g38" y="17170"/><use xlink:href="#g29" y="17187"/><use xlink:href="#g39" y="17204"/><use xlink:href="#g40" y="17221"/><use xlink:href="#g41" y="17238"/><use xlink:href="#g42" y="17255"/><use xlink:href="#g43" y="17272"/><rect x="0" y="17289" width="8" height="17" class="foreground"/><use xlink:href="#g1" y="17289"/></g><g><use xlink:href="#g15" y="17340"/><use xlink:href="#g16" y="17357"/><use xlink:href="#g17" y="17374"/><rect x="0" y="17391" width="136" height="17" class="color4"/><use xlink:href="#g2" y="17391"/><use xlink:href="#g23" y="17408"/><use xlink:href="#g24" y="17425"/><use xlink:href="#g25" y="17442"/><use xlink:href="#g26" y="17459"/><use xlink:href="#g27" y="17476"/><use xlink:href="#g28" y="17493"/><use xlink:href="#g29" y="17510"/><use xlink:href="#g30" y="17527"/><use xlink:href="#g29" y="17544"/><use xlink:href="#g31" y="17561"/><use xlink:href="#g29" y="17578"/><use xlink:href="#g32" y="17595"/><use xlink:href="#g33" y="17612"/><use xlink:href="#g34" y="17629"/><use xlink:href="#g35" y="17646"/><use xlink:href="#g36" y="17663"/><use xlink:href="#g37" y="17680"/><use xlink:href="#g29" y="17697"/><use xlink:href="#g38" y="17714"/><use xlink:href="#g29" y="17731"/><use xlink:href="#g39" y="17748"/><use xlink:href="#g40" y="17765"/><use xlink:href="#g41" y="17782"/><use xlink:href="#g42" y="17799"/><use xlink:href="#g43" y="17816"/><use xlink:href="#g44" y="17833"/><use xlink:href="#g45" y="17850"/><use xlink:href="#g46" y="17867"/><rect x="0" y="17884" width="8" height="17" class="foreground"/><use xlink:href="#g1" y="17884"/></g><g><use xlink:href="#g17" y="17918"/><rect x="0" y="17935" width="136" height="17" class="color4"/><use xlink:href="#g2" y="17935"/><use xlink:href="#g23" y="17952"/><use xlink:href="#g24" y="17969"/><use xlink:href="#g25" y="17986"/><use xlink:href="#g26" y="18003"/><use xlink:href="#g27" y="18020"/><use xlink:href="#g28" y="18037"/><use xlink:href="#g29" y="18054"/><use xlink:href="#g30" y="18071"/><use xlink:href="#g29" y="18088"/><use xlink:href="#g31" y="18105"/><use xlink:href="#g29" y="18122"/><use xlink:href="#g32" y="18139"/><use xlink:href="#g33" y="18156"/><use xlink:href="#g34" y="18173"/><use xlink:href="#g35" y="18190"/><use xlink:href="#g36" y="18207"/><use xlink:href="#g37" y="18224"/><use xlink:href="#g29" y="18241"/><use xlink:href="#g38" y="18258"/><use xlink:href="#g29" y="18275"/><use xlink:href="#g39" y="18292"/><use xlink:href="#g40" y="18309"/><use xlink:href="#g41" y="18326"/><use xlink:href="#g42" y="18343"/><use xlink:href="#g43" y="18360"/><use xlink:href="#g44" y="18377"/><use xlink:href="#g45" y="18394"/><use xlink:href="#g46" y="18411"/><use xlink:href="#g47" y="18428"/><use xlink:href="#g29" y="18445"/><rect x="0" y="18462" width="8" height="17" class="foreground"/><use xlink:href="#g1" y="18462"/></g><g><use xlink:href="#g24" y="18496"/><use xlink:href="#g25" y="18513"/><use xlink:href="#g26" y="18530"/><use xlink:href="#g27" y="18547"/><use xlink:href="#g28" y="18564"/><use xlink:href="#g29" y="18581"/><use xlink:href="#g30" y="18598"/><use xlink:href="#g29" y="18615"/><use xlink:href="#g31" y="18632"/><use xlink:href="#g29" y="18649"/><use xlink:href="#g32" y="18666"/><use xlink:href="#g33" y="18683"/><use xlink:href="#g34" y="18700"/><use xlink:href="#g35" y="18717"/><use xlink:href="#g36" y="18734"/><use xlink:href="#g37" y="18751"/><use xlink:href="#g29" y="18768"/><use xlink:href="#g38" y="18785"/><use xlink:href="#g29" y="18802"/><use xlink:href="#g39" y="18819"/><use xlink:href="#g40" y="18836"/><use xlink:href="#g41" y="18853"/><use xlink:href="#g42" y="18870"/><use xlink:href="#g43" y="18887"/><use xlink:href="#g44" y="18904"/><use xlink:href="#g45" y="18921"/><use xlink:href="#g46" y="18938"/><use xlink:href="#g47" y="18955"/><use xlink:href="#g29" y="18972"/><use xlink:href="#g48" y="18989"/><use xlink:href="#g49" y="19006"/><use xlink:href="#g50" y="19023"/><rect x="0" y="19040" width="8" height="17" class="foreground"/><use xlink:href="#g1" y="19040"/></g><g><use xlink:href="#g25" y="19074"/><use xlink:href="#g26" y="19091"/><use xlink:href="#g27" y="19108"/><use xlink:href="#g28" y="19125"/><use xlink:href="#g29" y="19142"/><use xlink:href="#g30" y="19159"/><use xlink:href="#g29" y="19176"/><use xlink:href="#g31" y="19193"/><use xlink:href="#g29" y="19210"/><use xlink:href="#g32" y="19227"/><use xlink:href="#g33" y="19244"/><use xlink:href="#g34" y="19261"/><use xlink:href="#g35" y="19278"/><use xlink:href="#g36" y="19295"/><use xlink:href="#g37" y="19312"/><use xlink:href="#g29" y="19329"/><use xlink:href="#g38" y="19346"/><use xlink:href="#g29" y="19363"/><use xlink:href="#g39" y="19380"/><use xlink:href="#g40" y="19397"/><use xlink:href="#g41" y="19414"/><use xlink:href="#g42" y="19431"/><use xlink:href="#g43" y="19448"/><use xlink:href="#g44" y="19465"/><use xlink:href="#g45" y="19482"/><use xlink:href="#g46" y="19499"/><use xlink:href="#g47" y="19516"/><use xlink:href="#g29" y="19533"/><use xlink:href="#g48" y="19550"/><use xlink:href="#g49" y="19567"/><use xlink:href="#g50" y="19584"/><use xlink:href="#g51" y="19601"/><rect x="0" y="19618" width="8" height="17" class="foreground"/><use xlink:href="#g1" y="19618"/></g><g><use xlink:href="#g26" y="19652"/><use xlink:href="#g27" y="19669"/><use xlink:href="#g28" y="19686"/><use xlink:href="#g29" y="19703"/><use xlink:href="#g30" y="19720"/><use xlink:href="#g29" y="19737"/><use xlink:href="#g31" y="19754"/><use xlink:href="#g29" y="19771"/><use xlink:href="#g32" y="19788"/><use xlink:href="#g33" y="19805"/><use xlink:href="#g34" y="19822"/><use xlink:href="#g35" y="19839"/><use xlink:href="#g36" y="19856"/><use xlink:href="#g37" y="19873"/><use xlink:href="#g29" y="19890"/><use xlink:href="#g38" y="19907"/><use xlink:href="#g29" y="19924"/><use xlink:href="#g39" y="19941"/><use xlink:href="#g40" y="19958"/><use xlink:href="#g41" y="19975"/><use xlink:href="#g42" y="19992"/><use xlink:href="#g43" y="20009"/><use xlink:href="#g44" y="20026"/><use xlink:href="#g45" y="20043"/><use xlink:href="#g46" y="20060"/><use xlink:href="#g47" y="20077"/><use xlink:href="#g29" y="20094"/><use xlink:href="#g48" y="20111"/><use xlink:href="#g49" y="20128"/><use xlink:href="#g50" y="20145"/><use xlink:href="#g51" y="20162"/><use xlink:href="#g52" y="20179"/><rect x="0" y="20196" width="8" height="17" class="foreground"/><use xlink:href="#g1" y="20196"/></g><g><use xlink:href="#g26" y="20230"/><use xlink:href="#g27" y="20247"/><use xlink:href="#g28" y="20264"/><use xlink:href="#g29" y="20281"/><use xlink:href="#g30" y="20298"/><use xlink:href="#g29" y="20315"/><use xlink:href="#g31" y="20332"/><use xlink:href="#g29" y="20349"/><use xlink:href="#g32" y="20366"/><use xlink:href="#g33" y="20383"/><use xlink:href="#g34" y="20400"/><use xlink:href="#g35" y="20417"/><use xlink:href="#g36" y="20434"/><use xlink:href="#g37" y="20451"/><use xlink:href="#g29" y="20468"/><use xlink:href="#g38" y="20485"/><use xlink:href="#g29" y="20502"/><use xlink:href="#g39" y="20519"/><use xlink:href="#g40" y="20536"/><use xlink:href="#g41" y="20553"/><use xlink:href="#g42" y="20570"/><use xlink:href="#g43" y="20587"/><use xlink:href="#g44" y="20604"/><use xlink:href="#g45" y="20621"/><use xlink:href="#g46" y="20638"/><use xlink:href="#g47" y="20655"/><use xlink:href="#g29" y="20672"/><use xlink:href="#g48" y="20689"/><use xlink:href="#g49" y="20706"/><use xlink:href="#g50" y="20723"/><use xlink:href="#g51" y="20740"/><use xlink:href="#g52" y="20757"/><rect x="352" y="20774" width="8" height="17" class="foreground"/><use xlink:href="#g53" y="20774"/></g><g><use xlink:href="#g28" y="20808"/><use xlink:href="#g29" y="20825"/><use xlink:href="#g30" y="20842"/><use xlink:href="#g29" y="20859"/><use xlink:href="#g31" y="20876"/><use xlink:href="#g29" y="20893"/><use xlink:href="#g32" y="20910"/><use xlink:href="#g33" y="20927"/><use xlink:href="#g34" y="20944"/><use xlink:href="#g35" y="20961"/><use xlink:href="#g36" y="20978"/><use xlink:href="#g37" y="20995"/><use xlink:href="#g29" y="21012"/><use xlink:href="#g38" y="21029"/><use xlink:href="#g29" y="21046"/><use xlink:href="#g39" y="21063"/><use xlink:href="#g40" y="21080"/><use xlink:href="#g41" y="21097"/><use xlink:href="#g42" y="21114"/><use xlink:href="#g43" y="21131"/><use xlink:href="#g44" y="21148"/><use xlink:href="#g45" y="21165"/><use xlink:href="#g46" y="21182"/><use xlink:href="#g47" y="21199"/><use xlink:href="#g29" y="21216"/><use xlink:href="#g48" y="21233"/><use xlink:href="#g49" y="21250"/><use xlink:href="#g50" y="21267"/><use xlink:href="#g51" y="21284"/><use xlink:href="#g52" y="21301"/><rect x="352" y="21318" width="8" height="17" class="foreground"/><use xlink:href="#g54" y="21318"/><rect x="0" y="21335" width="136" height="17" class="color4"/><use xlink:href="#g2" y="21335"/><rect x="24" y="21352" width="8" height="17" class="foreground"/><use xlink:href="#g3" y="21352"/></g><g><use xlink:href="#g29" y="21386"/><use xlink:href="#g30" y="21403"/><use xlink:href="#g29" y="21420"/><use xlink:href="#g31" y="21437"/><use xlink:href="#g29" y="21454"/><use xlink:href="#g32" y="21471"/><use xlink:href="#g33" y="21488"/><use xlink:href="#g34" y="21505"/><use xlink:href="#g35" y="21522"/><use xlink:href="#g36" y="21539"/><use xlink:href="#g37" y="21556"/><use xlink:href="#g29" y="21573"/><use xlink:href="#g38" y="21590"/><use xlink:href="#g29" y="21607"/><use xlink:href="#g39" y="21624"/><use xlink:href="#g40" y="21641"/><use xlink:href="#g41" y="21658"/><use xlink:href="#g42" y="21675"/><use xlink:href="#g43" y="21692"/><use xlink:href="#g44" y="21709"/><use xlink:href="#g45" y="21726"/><use xlink:href="#g46" y="21743"/><use xlink:href="#g47" y="21760"/><use xlink:href="#g29" y="21777"/><use xlink:href="#g48" y="21794"/><use xlink:href="#g49" y="21811"/><use xlink:href="#g50" y="21828"/><use xlink:href="#g51" y="21845"/><use xlink:href="#g52" y="21862"/><rect x="352" y="21879" width="8" height="17" class="foreground"/><use xlink:href="#g54" y="21879"/><rect x="0" y="21896" width="136" height="17" class="color4"/><use xlink:href="#g2" y="21896"/><use xlink:href="#g55" y="21913"/><rect x="0" y="21930" width="8" height="17" class="foreground"/><use xlink:href="#g1" y="21930"/></g></g></svg>
</svg>